<svg xmlns="http://www.w3.org/2000/svg" viewBox="0 0 512 512" role="img" aria-label="Pirxey Space">
  <defs>
    <radialGradient id="space" cx="52%" cy="38%" r="70%">
      <stop offset="0%" stop-color="#19254c"/>
      <stop offset="52%" stop-color="#090817"/>
      <stop offset="100%" stop-color="#03020a"/>
    </radialGradient>
    <linearGradient id="ship" x1="0" x2="1" y1="0" y2="1">
      <stop offset="0%" stop-color="#f4fbff"/>
      <stop offset="45%" stop-color="#84d9ec"/>
      <stop offset="100%" stop-color="#31556f"/>
    </linearGradient>
    <linearGradient id="flame" x1="0" x2="1" y1="0" y2="0">
      <stop offset="0%" stop-color="#ffcf65"/>
      <stop offset="50%" stop-color="#ff704a"/>
      <stop offset="100%" stop-color="#33f0b4"/>
    </linearGradient>
  </defs>
  <rect width="512" height="512" rx="104" fill="url(#space)"/>
  <circle cx="366" cy="142" r="58" fill="#162c55" stroke="#65d6e9" stroke-width="5"/>
  <circle cx="92" cy="122" r="4" fill="#ffffff" opacity=".82"/>
  <circle cx="424" cy="294" r="3" fill="#baf7ff" opacity=".9"/>
  <circle cx="152" cy="378" r="5" fill="#ffffff" opacity=".68"/>
  <path d="M107 354c64-94 144-157 272-202-45 124-109 202-204 270l-16-65-52-3z" fill="url(#ship)" stroke="#d5fbff" stroke-width="8" stroke-linejoin="round"/>
  <path d="M162 351l-56 64 82-24z" fill="url(#flame)" opacity=".95"/>
  <circle cx="285" cy="244" r="25" fill="#04121a" stroke="#7dffea" stroke-width="9"/>
  <path d="M91 238c76-17 152-18 228-3" fill="none" stroke="#7dffea" stroke-width="8" stroke-linecap="round" opacity=".78"/>
  <path d="M319 92c-16 78-50 154-102 226" fill="none" stroke="#ffcf65" stroke-width="6" stroke-linecap="round" opacity=".58"/>
</svg>
